<svg width="300" height="300" viewBox="0 0 300 300" fill="none" xmlns="http://www.w3.org/2000/svg">
<rect width="300" height="300" rx="100" fill="#941914"/>
<g clip-path="url(#clip0_37_3)">
<rect width="259" height="183" transform="translate(21 58)" fill="#941914"/>
<path d="M21 58H279.711V248.139H21V58ZM80.0349 194.8C80.703 195.475 84.7246 198.382 85.5244 198.565L85.8008 198.364C85.7453 198.247 80.933 194.708 80.2923 194.192L80.0349 194.8Z" fill="#941914"/>
<path d="M181.303 89.512C182.336 87.7177 185.3 86.7007 187.219 86.1361C194.567 83.9738 201.95 84.9596 208.705 88.5694C208.995 88.7252 209.443 89.0589 209.695 89.2817C210.598 88.1738 211.398 86.9542 212.916 86.7834C214.365 86.6201 215.77 88.0295 216.469 89.193C216.581 91.3651 216.686 92.2328 215.42 94.0723C220.553 99.601 223.123 108.111 222.935 115.653C222.908 116.472 222.865 117.29 222.807 118.107C225.243 117.741 228.811 117.027 231.199 116.957C236.946 116.789 243.878 117.83 248.657 121.342C254.019 125.395 253.273 132.914 252.638 138.887C259.536 128.406 261.959 115.206 250.275 107.47C245.168 104.089 237.277 101.875 231.226 101.779C229.895 101.851 226.926 101.567 225.691 101.087L225.797 101.096L225.958 100.891C227.696 100.692 228.695 100.669 230.449 100.694C241 100.308 255.684 104.676 259.845 115.984C261.894 121.554 260.667 129.318 258.284 134.575C255.466 140.792 251.22 145.869 246.545 150.673C232.016 166.693 213.642 178.124 193.974 186.222C190.885 187.494 188.206 188.903 184.901 190.103C179.792 191.994 174.588 193.601 169.31 194.916C166.778 195.556 161.446 196.62 159.426 197.388C158.714 199.204 158.035 201.321 157.339 203.171C145.09 235.716 107.523 232.234 82.9098 218.087C79.1968 215.953 75.6059 212.727 72.0347 210.31C56.5608 199.422 44.3053 182.852 38.1796 164.678C34.9039 154.96 34.8292 137.58 38.7126 128.021C54.8691 88.2501 109.767 102.325 133.379 126.148C135.607 128.398 137.785 130.02 139.471 132.739C139.898 132.266 141.15 131.001 141.594 130.665C143.772 129.016 160.379 119.357 161.694 119.682C161.595 119.899 158.193 122.001 157.73 122.245C146.542 128.139 136.689 135.909 127.899 145.23C117.603 156.15 101.175 178.754 114.391 193.136C118.896 198.038 130.526 198.872 136.811 198.505C137.708 198.455 142.164 198.454 142.691 197.875C142.298 197.265 139.245 196.49 138.442 196.29C123.553 192.587 121.738 181.95 129.177 169.447C131.919 164.839 137.425 157.249 141.575 153.433C148.733 146.852 162.66 136.504 172.004 134.09C171.265 133.547 170.606 132.897 170.047 132.16C165.494 126.131 164.615 117.169 165.652 109.87C166.546 103.575 168.788 98.8585 173.689 94.9799L173.783 95.0912C173.277 96.1858 171.348 98.8481 170.559 100.189C172.851 99.1866 173.306 98.9723 175.774 98.9446C176.342 98.0636 177.186 96.3085 177.739 95.3079C178.795 93.4016 179.968 91.566 181.249 89.8124L181.303 89.512ZM80.0349 194.8C80.703 195.475 84.7246 198.382 85.5244 198.565L85.8008 198.364C85.7453 198.247 80.933 194.708 80.2923 194.192L80.0349 194.8Z" fill="white"/>
<path d="M181.303 89.512C186.665 87.0192 192.776 85.9424 198.572 87.3208C193.669 88.7052 187.759 88.1043 183.5 90.8346C189.446 90.9874 195.382 88.9562 201.298 88.5453C202.022 88.4948 203.377 88.8538 204.139 89.0485C203.559 90.3075 202.885 91.3736 203.07 92.7392L203.308 92.8879C204.15 92.3774 204.58 91.0008 204.809 90.0791C204.874 89.823 204.932 89.5658 204.986 89.3076C206.685 90.5292 213.447 94.8493 213.736 96.5347C212.518 97.0943 209.472 94.9412 208.267 95.7686L208.231 96.09C208.954 96.9048 210.305 97.1315 211.33 97.33L209.521 104.742C207.863 102.727 206.734 101.433 204.444 100.194C205.615 103.032 206.855 103.418 207.693 105.188L207.575 105.452C206.744 105.494 206.248 105.329 205.776 105.801C205.566 106.522 205.548 106.24 205.789 106.879C206.305 107.342 206.434 107.361 207.082 107.544C207.94 107.087 207.78 106.289 208.468 106.22C209.288 108.411 209.96 116.497 210.771 117.864C208.555 121.244 205.16 125.649 202.618 128.867C201.291 128.797 200.056 129.01 198.74 129.188C198.83 128.263 199.039 127.074 198.755 126.226L198.491 126.006C197.76 126.489 197.374 128.225 197.186 129.094C197.161 129.212 197.138 129.331 197.117 129.45C196.387 129.487 194.229 129.592 193.603 129.751C191.244 130.349 190.492 130.705 188.051 130.909C188.621 130.379 189.378 129.756 189.745 129.086L189.691 128.887C189.025 129.09 187.78 129.623 187.25 129.417C186.959 127.94 193.465 120.34 193.798 118.144C192.296 117.726 187.245 126.389 186.389 127.925C185.077 126.611 182.712 124.121 181.383 123.132C183.239 121.907 185.107 120.86 186.474 119.043C184.38 119.716 183.108 120.613 181.218 121.746L181.013 116.525C186.092 116.364 189.355 116.631 194.296 115.371C192.649 114.013 184.645 108.964 182.625 109.469C182.839 110.801 190.31 114.102 191.815 115.022C187.619 114.975 185.078 115.229 180.935 115.524C180.926 112.372 180.918 110.237 180.203 107.118C179.764 105.2 178.852 102.593 178.685 100.76C178.288 101.666 177.733 103.026 177.285 103.869C176.808 102.311 176.636 101.78 175.649 100.432C177.731 98.8778 180.398 93.4745 181.523 90.9456L184.381 97.0112C183.272 97.2243 179.713 97.7708 179.024 98.4283C179.569 99.0715 183.905 99.3402 184.943 99.4562C183.914 101.5 183.47 103.18 182.614 104.963L182.705 105.38C183.886 104.985 185.692 101.04 186.341 99.765C188.417 99.8499 200.799 98.1728 201.742 96.5631C201.433 94.573 194.55 90.682 192.647 89.8232C194.908 93.3924 196.895 93.5352 199.628 96.0556C194.412 95.8859 193.265 95.9893 188.081 96.7007C188.756 95.4982 190.528 92.6433 190.552 91.3952L190.345 91.2984C188.973 92.1936 186.954 95.8037 186.344 97.3673C185.026 94.328 183.749 91.984 181.249 89.8124L181.303 89.512Z" fill="#941914"/>
<path d="M189.697 101.142L190.088 101.261C191.238 102.152 194.473 111.621 194.842 113.544L194.202 113.409C192.889 112.197 189.88 103.142 189.697 101.142Z" fill="white"/>
<path d="M203.519 103.045C204.092 104.504 198.98 113.869 196.936 114.397L196.879 114.13C197.153 112.868 202.448 104.455 203.519 103.045Z" fill="white"/>
<path d="M200.111 99.7261L200.3 99.9667C200.572 101.859 198.773 109.472 196.999 110.42L196.719 109.999C196.819 108.827 199.282 100.733 200.111 99.7261Z" fill="white"/>
<path d="M197.767 119.221C199.168 119.568 201.7 124.725 201.861 126.139C200.139 125.583 197.882 121.027 197.767 119.221Z" fill="white"/>
<path d="M207.227 110.429C207.548 110.369 207.648 110.4 207.962 110.444L208.163 110.761C207.731 111.805 205.149 112.138 204.157 112.271C203.702 112.253 203.626 112.253 203.205 112.077L203.127 111.779C203.81 110.903 206.123 110.539 207.227 110.429Z" fill="white"/>
<path d="M195.971 122.743C196.587 122.742 197.025 122.632 197.194 123.336C196.958 123.915 196.438 124.183 195.921 124.541L195.443 124.552L195.234 124.301C195.287 123.7 195.644 123.255 195.971 122.743Z" fill="white"/>
<path d="M205.386 95.23L205.626 95.3689C206.137 96.1619 205.778 97.6114 205.169 98.2761C204.835 97.9987 204.835 97.9638 204.659 97.5456C204.622 96.7554 205.061 95.9651 205.386 95.23Z" fill="white"/>
<path d="M231.226 101.779C229.895 101.851 226.926 101.567 225.691 101.087L225.797 101.096L225.958 100.891C227.696 100.692 228.695 100.669 230.449 100.694C229.904 100.837 229.463 100.836 229.168 101.207C229.94 101.497 230.543 101.539 231.226 101.779Z" fill="white"/>
<path d="M54.0337 124.135C67.7102 117.544 81.2875 120.76 94.9081 125.81C98.041 126.99 101.056 128.479 103.911 130.253C104.448 130.591 105.014 130.961 105.517 131.348C111.513 135.961 118.202 140.89 123.497 146.304C120.929 149.138 118.442 152.203 116.041 155.209C114.57 157.051 113.567 159.42 112.332 161.459C106.578 170.955 103.376 186.481 112.137 195.172C117.696 200.686 127.498 201.016 134.799 200.881C136.217 200.865 142.231 200.309 142.971 200.632L143.659 200.793C145.743 192.785 145.523 184.636 143.186 176.776C142.897 175.804 142.652 174.756 142.436 173.763C140.955 170.298 139.81 165.899 137.733 162.685C138.284 161.814 138.728 161.26 139.364 160.471C140.054 161.657 140.628 162.581 141.401 163.71C141.059 164.276 140.404 165.164 140.618 165.779C141.372 165.868 141.152 165.345 141.93 165.324C142.809 166.738 142.97 168.403 144.004 169.749C143.414 170.469 142.474 171.264 142.784 172.177C143.431 171.785 144.122 171.385 144.757 170.981C145.015 172.48 145.755 174.378 146.275 175.847C145.839 176.418 145.407 176.876 145.28 177.586L145.384 178.016C146.203 177.92 145.996 177.248 146.657 177.513C147.003 178.697 146.999 178.933 147.138 180.066C147.253 181.009 146.882 183.749 147.16 184.214C147.482 184.338 147.8 184.371 147.856 184.71C148.301 187.409 147.786 192.423 148.042 194.835L148.175 194.914C148.766 193.38 148.885 189.548 148.992 187.834C149.272 183.354 148.37 178.68 147.164 174.401C147.11 174.213 147.592 173.613 147.696 173.484L147.575 173.12C146.756 172.783 146.726 172.938 146.404 172.11C145.948 170.934 145.729 169.709 145.156 168.582C145.468 167.973 145.877 167.31 145.906 166.636L145.689 166.556L144.463 167.29C144.005 166.983 142.685 164.234 142.359 163.548C142.633 162.142 144.061 161.031 143.738 159.695L143.495 159.548C142.735 160.4 142.367 161.414 141.743 162.33C141.24 161.231 140.935 160.495 140.236 159.508C141.979 157.13 145.567 154.3 146.662 152.724C148.033 156.278 150.208 159.921 151.678 163.638C155.705 173.813 157.505 184.471 153.2 194.877C151.622 198.755 148.997 202.904 145.703 205.389C144.239 206.495 142.753 207.388 141.346 208.564C147.445 206.302 151.721 201.308 154.362 195.345C160.652 181.141 155.973 165.344 149.212 152.314C149.004 151.912 148.889 151.308 148.929 150.847L149.219 150.554C149.715 150.683 150.406 151.969 150.685 152.494C157.029 164.431 161.956 178.643 158.662 192.299C153.731 212.737 132.216 216.468 115.041 211.695C113.152 211.162 111.078 210.607 109.302 209.786C112.118 210.088 114.821 210.769 117.583 211.125C125.929 212.201 131.387 212.564 139.365 209.644L139.276 209.644C137.21 209.648 135.323 210.412 133.414 210.557C94.5988 213.508 53.0525 175.634 51.9333 135.419C51.8365 131.94 52.4228 127.197 54.0337 124.135Z" fill="#941914"/>
<path d="M142.971 200.632L143.659 200.793C143.337 202.395 143.089 203.254 142.57 204.806C142.471 203.559 142.755 201.869 142.971 200.632Z" fill="white"/>
<path d="M63.4864 106.152C62.01 107.433 60.143 108.454 58.5075 109.685C54.5549 112.661 52.1741 116.79 50.4094 121.4C50.2381 121.847 50.2126 122.011 50.3789 122.372C50.8097 122.097 51.3709 120.451 51.6955 119.781C54.7524 113.595 60.0399 108.88 66.4305 106.644C70.0328 105.399 73.7953 104.711 77.5945 104.603C87.1521 104.43 101.788 108.786 110.237 113.178C119.044 117.802 127.408 123.333 134.281 130.714C135.095 131.588 137.303 133.768 136.63 135.046L136.293 135.135C134.875 134.725 132.733 131.902 131.511 130.781C120.838 120.987 106.39 113.06 92.4747 109.754C81.3861 107.12 66.3221 107.432 57.9402 116.309L58.123 116.708C57.4999 117.384 56.8483 118.059 56.3054 118.802L56.0315 118.36C51.6023 123.866 50.6854 129.287 50.6732 136.291C50.6399 155.161 58.676 173.024 72.0871 185.813C74.8879 188.484 77.1399 191.648 80.2923 194.192L80.0349 194.801C75.6698 191.231 72.4307 187.89 68.8079 183.597C67.3504 181.871 65.5676 180.274 64.1182 178.475C57.0043 169.533 51.9757 159.037 49.4174 147.79C48.2739 142.908 48.2346 139.072 47.4143 134.431C47.3533 134.902 47.2928 135.463 47.2909 135.932C47.139 178.164 85.8215 213.153 125.553 215.097C136.137 215.616 145.663 212.761 153.16 204.866C155.452 202.453 156.848 199.376 159.171 197.211C156.637 202.525 153.767 209.149 149.946 213.572C148.894 213.531 144.233 213.436 143.673 214.131L143.662 214.092L143.891 213.981L144.101 214.308C145.837 214.796 147.583 214.624 149.332 214.442C148.005 216.12 146.902 217.786 144.912 218.592C143.352 218.308 139.205 216.754 137.982 217.293L138.048 217.573C139.057 218.277 143.047 219.302 144.473 219.52C142.994 220.266 141.123 221.487 139.675 222.376C138.559 221.814 134.122 219.765 132.938 220.006C133.562 221.04 137.7 222.373 139.036 222.875C136.453 223.502 133.913 224.516 131.315 225.156C117.838 228.477 100.138 224.857 88.0883 217.944C65.336 204.891 47.427 186.443 39.7368 160.293C36.1523 147.809 37.4875 134.376 43.4544 122.895C47.7379 114.831 54.9316 108.818 63.4864 106.152Z" fill="#941914"/>
<path d="M56.0315 118.36C56.6645 117.567 57.23 117.016 57.9402 116.309L58.123 116.708C57.4999 117.384 56.8483 118.058 56.3054 118.802L56.0315 118.36Z" fill="white"/>
<path d="M43.4634 145.206L43.6538 145.389C43.6462 146.151 41.1933 149.63 40.5901 150.698C40.9838 152.098 41.273 153.773 41.557 155.222C42.7962 153.297 43.5013 152.221 45.154 150.679C44.3566 152.667 43.2771 154.524 41.9507 156.187C42.4748 158.264 42.9395 159.674 43.4106 161.889C43.9658 160.567 44.5138 158.983 45.4894 157.969L45.7248 158.006C45.8603 159.388 44.5685 161.603 43.7777 162.713C44.4986 164.411 45.0046 165.684 45.5952 167.442C46.436 165.968 47.2584 164.43 48.3099 163.111C47.9395 164.868 47.0069 166.714 46.2695 168.373C46.9448 169.881 47.601 171.392 48.372 172.852C48.8053 171.715 49.0139 171.061 49.8182 170.145L49.9254 170.23C49.8688 171.345 49.4233 172.909 49.1426 174.033C49.4309 174.784 50.9819 177.03 51.5132 177.881C51.8187 177.295 52.0534 176.686 52.5916 176.344L52.8126 176.451C52.9358 177.217 52.5652 178.057 52.3127 178.81C52.7181 179.461 54.7509 182.271 55.2577 182.658C55.5319 182.333 55.7372 182.105 56.0387 181.806L56.2929 181.882L56.3357 182.224C56.0058 182.64 55.9213 182.728 55.737 183.227C56.124 184.508 58.6876 186.628 59.5633 187.756C59.8841 188.169 59.816 189.056 60.2151 189.47C61.7697 191.084 63.1352 192.404 64.5518 194.167C65.8571 195.324 70.7332 199.633 70.4609 201.231C69.3573 201.407 66.3814 196.094 64.5554 195.809C64.4211 196.363 64.2739 196.913 64.1135 197.459L63.8839 197.548C63.5391 196.958 63.4891 195.727 63.4111 194.994C62.5052 193.612 61.0433 192.079 59.9188 190.827C59.8348 191.512 59.7676 192.769 59.2717 193.226L59.058 192.969C58.7703 191.971 58.9533 190.907 59.0493 189.859C58.2 188.52 56.8781 186.836 55.9144 185.534C55.7755 186.261 55.5755 187.852 55.0561 188.277C54.5518 187.546 55.0788 185.506 55.249 184.641C54.2872 183.686 53.3533 182.439 52.4988 181.358C51.8489 181.341 52.2982 182.3 51.2469 182.734L50.9391 182.528C50.8726 181.875 51.2235 180.288 51.3559 179.565C50.6681 178.626 49.9705 177.611 49.1756 176.766C48.7834 176.349 48.4821 176.51 47.8998 176.385L47.758 176.043C48.3979 175.058 48.2846 174.82 47.5894 173.808C43.9606 168.431 41.9986 162.151 40.6589 155.835C39.2781 149.324 39.227 150.066 43.4634 145.206Z" fill="white"/>
<path d="M43.336 138.922L43.463 139.336C43.0923 140.479 40.328 144.014 39.3562 144.764L39.1737 144.486C39.4669 143.132 42.3574 139.976 43.336 138.922Z" fill="white"/>
<path d="M43.7279 132.768L43.9407 133.033C43.8926 133.909 41.2183 136.839 40.5 137.734L40.3036 137.582L40.2707 137.24C40.9975 135.591 42.5057 134.103 43.7279 132.768Z" fill="white"/>
<path d="M45.0271 126.464L45.2242 126.785C44.654 127.916 42.7332 129.744 41.8288 130.633C41.6382 130.374 41.6982 130.454 41.7063 130.049C42.6116 128.54 43.7389 127.614 45.0271 126.464Z" fill="white"/>
<path d="M71.1758 201.12C72.3209 201.422 74.6991 203.919 75.2278 205.019L75.1642 205.008C74.1696 204.852 71.4962 202.141 71.1758 201.12Z" fill="white"/>
<path d="M128.168 222.372C129.352 222.455 131.45 222.551 132.13 223.591C131.221 223.592 128.51 223.254 128.168 222.372Z" fill="white"/>
<path d="M46.7528 120.884L46.9387 121.067C46.8174 121.953 45.1304 123.329 44.4303 123.978L44.256 123.762C44.4209 122.793 45.9887 121.576 46.7528 120.884Z" fill="white"/>
<path d="M151.957 208.994L152.093 209.263C151.679 210.044 150.147 210.464 149.32 210.74L149.125 210.479L149.208 210.11C149.911 209.596 151.106 209.275 151.957 208.994Z" fill="white"/>
<path d="M229.765 119.91C233.436 119.26 240.359 120.203 243.75 122.277C244.668 129.827 239.461 134.644 234.315 139.224C213.998 157.308 187.348 172.681 161.048 179.327C160.915 173.268 159.149 167.254 157.234 161.568C155.575 157.014 153.913 153.094 151.446 148.938C156.281 145.079 161.6 141.438 167.03 138.517C168.961 137.478 171.143 136.643 173.146 135.697C174.489 136.697 176.904 138.417 177.947 139.637C177.836 140.049 177.625 140.558 177.544 140.967C177.13 143.188 179.782 145.043 181.712 144.209C183.534 143.422 183.045 142.206 185.238 142.717C190.07 143.843 194.943 144.785 199.855 143.553C202.432 142.906 204.329 142.422 206.564 140.902C205.415 141.102 204.033 141.497 202.808 141.734C200.283 142.223 198.412 142.207 195.88 142.2C196.588 141.274 197.326 140.18 198.026 139.22C200.497 139.324 205.046 138.752 206.822 138.93C207.084 139.267 207.088 139.29 207.223 139.709L207.256 139.813C207.962 139.861 208.638 138.871 209.071 138.664C209.478 138.47 210.204 138.838 210.784 138.359L210.789 137.96C210.52 137.691 210.392 137.619 210.04 137.487C209.704 136.449 211.013 134.104 211.368 132.525C212.468 133.616 213.895 134.466 215.199 135.272C215.843 133.946 217.944 131.076 218.811 129.528C220.56 126.402 221.409 123.879 222.598 120.538C224.95 120.451 227.414 120.151 229.765 119.91Z" fill="#941914"/>
<path d="M219.476 130.319C223.326 130.937 221.183 134.916 218.728 136.416L216.142 135.486C216.997 134.511 218.021 133.337 218.616 132.164C218.964 131.478 218.937 131.221 219.396 130.449L219.476 130.319Z" fill="white"/>
<path d="M245.448 123.02C247.771 123.662 249.484 127.009 250.093 129.272C251.733 135.361 249.155 140.762 246.254 145.912C244.046 149.832 239.692 153.273 236.545 156.397C222.847 170.411 205.107 178.747 187.289 185.719C184.579 186.778 181.949 188.041 179.234 189.082C174.123 190.909 168.782 192.477 163.535 193.883C162.314 194.265 160.967 194.608 159.726 194.948C160.532 191.179 161.329 185.898 161.372 182.051C176.076 178.546 190.299 172.046 203.505 164.628C207.987 162.11 211.266 159.962 215.53 157.169C225.501 150.78 235.392 143.55 242.812 134.077C245.191 131.037 246.104 126.824 245.448 123.02Z" fill="#941914"/>
<path d="M218.321 156.618C219.884 156.395 223.685 157.25 225.396 157.647C225.864 157.756 225.831 157.935 226.025 158.381C224.16 158.512 219.478 158.308 218.321 156.618Z" fill="white"/>
<path d="M194.583 170.77C196.349 170.665 201.488 171.685 202.316 173.356C200.75 173.064 195.215 171.991 194.583 170.77Z" fill="white"/>
<path d="M200.77 167.58C202.195 167.496 207.752 168.684 208.567 169.939C207.041 170.14 201.651 168.98 200.77 167.58Z" fill="white"/>
<path d="M212.688 160.941C214.119 160.652 219.49 161.341 220.256 162.662C218.847 162.852 213.521 162.187 212.688 160.941Z" fill="white"/>
<path d="M206.681 164.238C208.226 163.955 213.783 165.325 214.583 166.731C214.433 166.728 214.283 166.72 214.135 166.707C212.78 166.592 207.496 165.25 206.681 164.238Z" fill="white"/>
<path d="M188.499 173.91C190.058 173.635 194.618 174.683 195.727 175.877C194.331 176.072 189.328 175.027 188.499 173.91Z" fill="white"/>
<path d="M181.976 176.522C183.583 176.28 188.587 177.525 189.501 178.832C188.215 178.932 182.969 177.448 181.976 176.522Z" fill="white"/>
<path d="M224.897 153.114C226.001 153.016 230.471 152.797 231.262 153.542L231.118 153.914L230.962 153.933C229.896 154.057 225.694 154.315 224.854 153.616L224.897 153.114Z" fill="white"/>
<path d="M175.78 179.132C177.411 178.876 181.741 179.664 182.813 181.002C182.583 181.012 182.353 181.012 182.123 181.004C180.929 180.958 176.549 179.969 175.78 179.132Z" fill="white"/>
<path d="M235.808 148.321L235.95 148.279L236.149 148.404L236.081 148.23L236.249 148.373L236.241 148.257L236.424 148.326L236.389 148.62C235.233 149.437 232.308 149.843 230.896 149.994L230.438 149.891L230.334 149.656C230.95 148.871 234.749 148.431 235.808 148.321Z" fill="white"/>
<path d="M169.746 181.348C170.986 181.115 175.134 181.981 175.961 182.912C174.706 182.96 170.649 182.167 169.746 181.348Z" fill="white"/>
<path d="M241.031 143.441L241.284 143.569C240.666 144.685 237.3 145.341 236.131 145.587L235.96 145.442L236.093 145.13C237.065 144.582 239.82 143.824 241.031 143.441Z" fill="white"/>
<path d="M244.136 139.517L244.102 139.782C243.584 140.627 242.449 140.805 241.537 141.025L241.51 140.803C241.925 140.304 243.455 139.793 244.136 139.517Z" fill="white"/>
<path d="M58.123 116.708C77.5222 100.729 107.896 115.561 124.923 128.706C127.43 130.642 131.295 134.451 133.542 136.743C132.235 137.903 130.561 139.312 129.387 140.567C128.633 139.191 128.226 138.352 127.134 137.215C127.397 138.608 127.709 139.969 128.276 141.273L125.326 144.609C113.589 132.644 101.581 123.445 84.9771 120.284C74.1534 118.224 64.0764 116.817 54.1199 123.073C54.7576 121.603 55.3525 120.084 56.3054 118.802C56.8483 118.058 57.4999 117.384 58.123 116.708Z" fill="#941914"/>
<path d="M122.101 134.005C123.637 134.378 124.525 138.631 124.5 140.064C124.379 140.039 124.137 139.923 124.011 139.869C123.448 138.827 122.49 135.349 122.101 134.005Z" fill="white"/>
<path d="M116.545 130.5C117.609 130.786 119.67 135.096 120.221 136.279C118.548 135.751 116.933 132.217 116.545 130.5Z" fill="white"/>
<path d="M111.162 127.91C112.621 128.047 113.924 130.456 114.131 131.82C113.503 131.569 111.659 128.63 111.162 127.91Z" fill="white"/>
<path d="M177.344 109.971L177.581 110.019C177.797 110.295 178.791 116.992 178.982 118.05C177.194 116.692 176.251 115.54 174.16 114.651C175.874 118.034 178.187 118.689 180.198 121.972C179.281 122.79 174.778 125.845 174.79 126.633C175.954 126.67 179.411 124.684 180.761 124.059C180.851 124.132 180.939 124.206 181.026 124.282C181.704 124.873 185.72 128.808 185.778 129.486L185.107 130.113L185.136 130.328L185.475 130.441C186.105 130.096 186.58 129.767 187.194 130.327C187.066 131.141 185.903 132.009 185.267 132.526C184.757 134.023 184.36 134.926 183.685 136.359C183.172 135.579 183.007 135.253 182.259 134.731L182.01 134.822C182.054 136.093 183.795 138.673 184.493 139.788C183.675 139.366 182.618 138.712 181.803 138.237C179.047 136.647 176.836 134.753 174.37 132.757C176.662 132.894 179.085 133.26 181.446 133.423C176.961 127.879 174.684 130.151 169.756 126.073C170.377 125.179 170.875 124.201 171.234 123.167C171.703 121.823 172.764 116.749 172.263 115.655L172.146 115.716C171.118 116.994 169.59 122.802 169.031 124.676C168.488 120.995 167.673 118.865 167.455 114.852C170.896 113.829 174.38 111.998 177.344 109.971Z" fill="#941914"/>
<path d="M136.2 164.483C137.658 165.137 142.148 179.425 142.801 181.681C140.147 181.553 137.735 181.093 134.909 181.031C132.206 180.967 130.281 181.072 127.661 180.368C129.045 174.904 132.898 168.985 136.2 164.483Z" fill="#941914"/>
<path d="M127.728 183.023C129.827 183.467 131.23 183.78 133.374 183.955C136.206 184.186 140.367 183.988 143.045 184.517C143.593 188.29 143.697 190.983 143.476 194.803C143.426 194.81 143.377 194.817 143.327 194.825C138.982 193.694 133.197 192.244 129.904 189.076C127.883 187.131 127.769 185.06 127.728 183.023Z" fill="#941914"/>
<path d="M211.23 122.158C211.967 122.524 211.449 124.76 212.921 126.698C212.491 127.249 211.682 128.076 211.926 128.798C213.644 129.342 218.722 124.924 219.871 123.749C218.764 126.59 216.899 131.543 215.273 133.965C212.768 132.383 213.084 132.426 211.033 130.745C210.217 130.893 210.607 132.414 210.37 133.077C210.231 133.465 209.814 134.054 209.577 134.397C208.997 135.373 208.37 136.638 207.832 137.662C205.91 137.562 199.319 138.333 198.7 137.876C199.191 136.469 202.446 133.984 203.906 133.502C204.416 132.463 204.64 131.988 204.994 130.869C206.074 130.694 208.298 130.356 208.898 129.386L208.723 129.087C208.031 128.771 207.053 128.918 206.271 128.965C207.949 126.716 209.602 124.447 211.23 122.158Z" fill="#941914"/>
<path d="M210.058 107.011C211.348 107.325 213.479 109.48 214.571 110.448C214.011 111.002 213.111 111.748 213.671 112.524C214.406 112.401 214.903 111.603 215.758 111.114L216.245 111.289C217.25 112.493 216.276 114.602 216.746 115.964L217.073 116.097L217.447 115.83C218.39 114.01 218.751 109.38 218.99 107.14C220.968 112.239 220.943 116.428 219.994 121.698C219.362 121.94 218.628 122.167 217.98 122.384C216.034 123.269 214.643 124.41 213.026 125.797C212.815 123.914 212.788 121.433 212.779 119.531C212.932 119.568 213.087 119.602 213.245 119.631C214.522 119.868 217.264 119.991 218.31 119.235L218.294 118.97C217.284 118.316 214.629 118.539 213.346 118.574C213.843 117.684 214.965 115.96 214.854 114.981L214.529 114.954C213.581 115.466 212.8 116.448 212.054 117.264C211.875 116.238 210.005 107.259 210.058 107.011Z" fill="#941914"/>
<path d="M196.396 132.91C196.661 132.866 196.664 132.899 196.918 133.008C196.598 135.255 197.192 136.033 197.241 138.124C195.799 138.664 189.009 137.175 188.311 139.797C189.5 140.76 195.051 139.236 196.597 138.791C195.979 139.637 195.333 140.747 194.772 141.655L194.703 141.94C194.127 142.282 194.074 142.126 193.307 142.09C188.429 141.861 187.469 140.493 184.526 137.026C185.33 135.66 186.133 134.445 187.008 133.132C190.059 132.917 193.259 133.113 196.396 132.91Z" fill="#941914"/>
<path d="M174.376 100.588C175.288 101.122 175.962 105.399 176.546 106.571C176.908 107.3 177.29 107.77 177.779 108.401C175.425 107.666 174.472 107.427 172.028 107.359L168.027 107.234C168.692 105.22 169.35 103.134 170.079 101.149C171.585 100.994 172.885 100.84 174.376 100.588Z" fill="#941914"/>
<path d="M167.941 108.26C170.723 108.652 173.519 109.129 176.315 109.53L172.766 111.101C170.763 112.027 169.397 112.764 167.494 113.852C167.548 112.251 167.666 109.772 167.941 108.26Z" fill="#941914"/>
<path d="M217.532 103.448C219.282 104.925 217.635 106.608 217.423 108.536C217.337 109.324 217.196 110.116 217.107 110.911C216.356 110.349 215.604 109.732 214.869 109.146C213.975 108.334 212.95 107.491 212.027 106.698C214.507 106.096 215.622 105.079 217.532 103.448Z" fill="#941914"/>
<path d="M212.677 97.6226C213.633 98.6072 216.442 99.1021 216.71 100.779C216.28 101.566 215.109 101.632 214.009 102.441L213.872 102.544L211.111 104.614C211.695 102.123 211.821 100.21 212.677 97.6226Z" fill="#941914"/>
<path d="M210.847 89.5778C213.483 89.328 214.959 89.9222 214.419 92.9282C213.931 92.67 211.082 90.2156 210.847 89.5778Z" fill="#941914"/>
<path d="M80.2923 194.192C80.933 194.708 85.7453 198.247 85.8008 198.364L85.5244 198.565C84.7246 198.382 80.703 195.475 80.0349 194.801L80.2923 194.192Z" fill="white" fill-opacity="0.988235"/>
<path d="M199.73 132.175L200.3 132.337L200.461 132.65C200.36 133.495 199.664 134.587 199.237 135.366L198.986 135.529L198.81 135.278C198.589 133.846 198.454 132.964 199.73 132.175Z" fill="#941914"/>
<path d="M121.2 157.114C121.285 157.858 118.671 163.43 118.211 164.66C116.073 170.37 113.086 179.312 115.626 185.275C116.036 186.238 116.293 186.89 117.241 187.284C120.163 187.481 121.165 181.234 121.715 180.777L121.906 180.955C122.165 182.078 121.957 183.926 121.73 185.057C120.542 189.175 119.779 189.839 115.674 189.688C113.04 187.667 111.836 183.814 111.803 180.533C111.718 172.029 115.548 163.237 121.2 157.114Z" fill="white"/>
<path d="M162.777 121.293C162.91 121.401 165.221 128.524 165.676 129.535C163.787 127.695 162.98 126.489 162.334 123.942C159.92 125.914 157.361 127.692 154.924 129.634C152.611 131.417 150.432 133.519 148.038 135.187C144.691 137.521 141.329 139.838 137.988 142.183C136.309 143.273 134.87 144.661 133.075 145.798C137.865 138.938 147.65 130.977 154.571 126.208C156.681 124.754 161.334 122.496 162.777 121.293Z" fill="white"/>
<path d="M249.372 108.641C251.641 108.552 259.704 115.742 253.056 119.534C251.858 119.536 250.897 119.471 249.703 119.377C248.848 119.11 247.128 118.665 246.622 117.954C247.26 117.381 249.666 117.637 250.637 117.677C251.325 117.297 252.304 116.837 252.537 116.064C253.217 113.812 250.346 110.55 249.432 108.76L249.372 108.641Z" fill="white"/>
<path d="M167.069 95.5152C167.773 95.4767 169.235 95.536 169.692 96.1103C168.97 98.2538 165.94 98.0273 166.946 102.146L166.876 102.498L166.617 102.665C165.988 102.389 164.885 101.106 164.669 100.452C163.841 97.935 164.934 96.3858 167.069 95.5152Z" fill="white"/>
<path d="M142.215 144.255C142.543 144.224 142.872 144.205 143.201 144.198C144.564 144.163 149.312 143.902 150.148 144.718L150.129 145.277C148.76 145.318 142.949 145.431 142.133 144.776L142.215 144.255Z" fill="white"/>
<path d="M140.263 149.251C141.635 149.174 143.099 149.125 144.324 149.787L144.27 150.041C143.509 150.371 142.735 150.289 141.909 150.272C140.821 150.277 137.794 150.463 137.063 149.855C137.675 149.238 139.28 149.318 140.263 149.251Z" fill="white"/>
<path d="M137.847 154.266C138.405 154.218 138.716 154.148 139.244 154.369L139.307 154.591C138.443 155.277 135.134 155.478 133.743 155.794C133.223 156.006 133.139 156.156 132.71 156L132.793 155.628C134.141 154.238 136.099 154.316 137.847 154.266Z" fill="white"/>
<path d="M148.597 139.725C150.673 139.813 153.204 139.961 155.283 140.24C155.697 140.295 155.682 140.421 155.867 140.755C154.505 141.326 150.554 141.029 149.023 140.544C148.677 140.434 148.672 140.035 148.597 139.725Z" fill="white"/>
<path d="M237.033 103.965C239.107 104.093 240.702 107.969 241.504 109.695C239.824 109.577 237.941 105.503 237.033 103.965Z" fill="white"/>
<path d="M230.321 102.764C232.287 103.149 234.442 106.392 235.193 108.218L234.487 108.047C233.766 107.454 230.442 103.615 230.321 102.764Z" fill="white"/>
<path d="M133.817 159.399C134.236 159.386 134.291 159.403 134.704 159.501L134.815 159.744C134.295 160.541 130.686 161.845 129.622 162.276L129.109 162.424L129.007 162.173C129.863 161.099 132.478 159.761 133.817 159.399Z" fill="white"/>
<path d="M156.927 136.07C158.19 136.039 160.16 135.963 161.257 136.629L161.198 136.792C160.473 137.109 159.855 137.03 159.073 137.005C158.197 136.999 155.179 137.087 154.715 136.419L154.783 136.49C155.644 135.968 155.894 136.1 156.927 136.07Z" fill="white"/>
<path d="M243.163 106.279C244.478 106.469 246.646 108.844 247.415 109.934C246.21 110.055 243.473 107.286 243.163 106.279Z" fill="white"/>
<path d="M224.115 103.489C225.373 103.413 228.207 105.07 228.932 106.111C227.582 106.064 225.114 104.403 224.115 103.489Z" fill="white"/>
<path d="M161.857 133.251C162.715 133.218 164.208 133.089 164.98 133.38C165.1 133.425 165.174 133.728 165.24 133.898C164.397 133.948 162.717 134.139 162.021 133.8L161.857 133.251Z" fill="white"/>
<path d="M129.768 164.889L130.128 164.949L130.163 165.161C129.419 165.923 128.398 166.583 127.522 167.2L127.283 167.305L127.1 167.184C127.395 166.446 129.082 165.332 129.768 164.889Z" fill="white"/>
</g>
<defs>
<clipPath id="clip0_37_3">
<rect width="259" height="183" fill="white" transform="translate(21 58)"/>
</clipPath>
</defs>
</svg>
