<svg width="225" height="140" viewBox="0 0 225 140" fill="none" xmlns="http://www.w3.org/2000/svg">
<g clip-path="url(#clip0_5_172)">
<path d="M161.701 3.10633C161.634 2.85105 161.571 2.3806 161.288 2.29279C157.728 1.18659 153.168 2.19939 149.62 2.99612C148.447 3.25953 146.507 4.21922 146.068 4.15056C146.218 3.6326 146.638 3.44977 147.108 3.18781C154.508 -0.93567 166.688 -0.423308 173.664 4.45029C176.034 1.84113 177.122 1.12282 180.02 3.73992C180.748 6.08674 180.406 7.06215 179.385 9.3087C185.456 15.4218 187.237 24.3092 186.585 32.6283C188.964 32.2659 193.235 31.4238 195.589 31.4254C201.166 31.4294 207.876 32.3678 212.507 35.6331C216.058 38.1555 216.991 42.546 217.036 46.6308C217.049 47.8906 216.429 51.1743 216.727 52.1311C219.153 51.4488 222.963 39.1058 222.606 36.1355C222.029 31.3344 220.991 27.8179 217.497 24.5157C217.392 23.4554 217.153 23.6849 217.594 22.4609C228.002 29.5349 225.677 44.9474 219.121 53.893C205.137 72.9704 184.995 86.7675 163.591 96.3684C159.851 98.0458 156.272 99.3497 152.512 101.148C147.598 103.499 141.147 104.842 135.937 106.529C131.897 107.627 127.66 108.261 123.687 109.501C122.048 110.017 119.648 113.653 118.494 115.239C114.794 120.328 106.6 124.948 100.389 126.064C81.5534 129.208 61.3709 121.91 45.745 111.664C42.016 109.219 37.2715 105.124 34.3045 101.864C32.5181 99.9013 29.8889 97.1024 28.2443 95.1155C19.9469 85.1892 14.3989 73.26 12.154 60.5188C11.4293 56.5182 10.8313 52.6661 11.4422 48.5874L11.4891 48.7654C11.8149 50.0448 12.0284 53.1281 12.1992 54.6238C12.6434 58.5164 13.2127 61.3425 14.2826 65.1097C17.1676 75.0007 22.0459 84.1967 28.6174 92.1322C29.3597 93.0163 30.9084 94.0644 31.7542 95.0036C33.3882 96.8182 35.7559 99.7925 37.3779 101.405C39.1006 103.118 47.95 110.787 49.627 110.74L49.7466 110.47C49.4525 110.117 45.631 107.518 44.9116 106.994C41.3943 104.435 38.5568 100.402 35.5691 97.6269C21.5568 84.61 13.2974 65.1877 14.9639 46.0106C16.3597 27.9596 33.2362 21.4661 49.2707 23.2655C65.9359 25.1358 82.0509 33.6075 94.8275 44.2125C96.2464 45.3904 98.7571 49.0588 100.536 48.7715C101.384 47.7509 100.187 46.9994 99.5011 46.1042C96.6114 42.331 92.8928 39.5949 89.1765 36.7019C85.8022 33.9545 83.6256 32.9741 80.0969 30.8422C71.1376 25.4297 60.8641 21.7462 50.5187 20.1802C46.4885 19.5702 42.8522 18.9148 38.6968 19.449C29.9769 20.5702 23.5478 23.095 18.1237 30.2289C16.8648 31.8843 15.2338 35.4423 14.4027 36.4043L14.2468 36.219C15.6881 31.9533 18.4378 27.5007 21.9799 24.7089C22.8247 24.0433 26.8463 21.8811 27.0203 21.1623C26.2263 20.8947 22.8488 22.3263 22.0659 22.7671C-1.32682 35.9212 -2.60095 65.5319 8.99544 87.1847C12.2526 93.0429 16.3414 100.109 20.8351 105.041C29.2372 114.263 40.81 123.701 51.8537 129.663C67.7102 138.223 86.1865 140.616 103.024 134.495C100.626 133.274 97.8574 132.524 95.6889 131.409C97.725 131.615 99.8599 132.094 101.627 133.173C103.964 134.6 106.649 132.238 108.839 131.099C106.429 130.737 103.323 130.17 101.389 128.553C103.877 128.946 106.588 130.132 109.04 130.292C110.011 130.356 112.951 127.376 113.059 126.318C112.459 125.916 109.143 126.605 107.847 125.904L107.884 125.682C109.46 124.71 112.94 126.064 114.075 125.155C117.539 122.38 120.806 113.307 123.071 110.36C122.167 113.604 120.622 116.701 119.095 119.689C108.386 140.653 85.046 142.732 64.2505 136.849C58.3144 135.13 52.5893 132.753 47.1826 129.76C39.9208 125.7 27.8739 116.31 22.166 110.27C16.7564 104.516 12.0821 98.1134 8.2502 91.2079C6.69884 88.4224 3.49982 81.8038 2.53621 78.8355C-0.889411 68.2825 -1.26292 54.9515 2.00799 44.3135C4.59248 35.9081 11.5683 27.2369 19.3448 23.097C23.3891 20.9438 26.4644 20.0761 30.8807 19.2187C41.2841 17.2075 52.0199 17.7463 62.1696 20.789C73.3688 24.0442 84.3515 29.4284 93.3435 36.901C96.0211 39.126 98.7587 41.5188 101.216 43.9845C101.792 44.5619 102.527 45.9523 103.011 46.3045C103.287 46.5047 103.701 46.4191 103.976 46.2769C104.933 45.783 105.735 44.6533 106.714 44.0341C109.096 42.5267 123.485 34.206 125.078 34.4037C125.114 34.4082 125.148 34.4225 125.183 34.4318C114.187 40.8048 106.444 44.8144 97.1147 53.8843L96.5516 53.3084C94.9007 53.7571 94.4779 55.1641 93.9491 56.5531C93.5927 57.1055 91.3051 59.3966 90.7317 59.9557C90.5286 59.7391 90.4419 59.6121 90.1667 59.4903C88.5763 59.9127 88.2802 61.5287 87.0501 62.636C86.0413 63.4698 84.7432 65.099 84.1647 66.2535L84.293 66.637L84.4156 66.6872C84.7634 66.8334 84.7304 66.7866 84.8575 67.0511C83.9139 68.4912 82.5288 69.5481 81.813 70.7455C78.012 77.104 74.2948 82.7954 73.5718 90.3467C71.6945 109.949 89.095 111.629 104.139 110.673C104.899 110.625 106.083 110.825 106.603 110.408L106.621 110.014C105.959 109.154 103.498 108.755 102.35 108.434C100.744 107.975 99.1663 107.425 97.6231 106.788C92.9034 104.837 89.594 102.239 89.163 96.8255C88.3845 87.0459 95.5366 78.9327 101.155 71.726C102.581 69.8958 104.429 68.0153 106.072 66.3805C113.727 59.9243 122.058 53.99 131.254 49.9397C132.674 49.3144 134.371 48.4843 135.874 48.3381C135.091 47.1416 134.1 46.2128 133.252 44.8887C127.843 36.4412 128.097 22.1675 133.727 13.9097C134.457 12.8382 137.01 10.5748 138.048 9.58675C137.351 11.2346 135.071 13.4445 135.157 14.6372C135.857 14.8377 136.417 14.2567 137.034 14.1781C139.913 13.8107 139.808 13.9487 141.197 11.285C142.279 9.21042 143.769 6.88004 145.372 5.05985C147.83 7.3606 149.016 9.32298 150.138 12.4853C150.754 11.3634 153.26 6.38357 154.515 6.58158C154.664 7.36909 152.559 10.7714 152.018 11.8416C157.591 10.9088 158.108 10.8602 163.751 11.21C161.123 8.45416 159.459 8.80212 156.834 5.32705C160.699 6.61139 163.353 8.77845 166.029 11.7336C161.398 12.8226 155.413 15.1158 150.318 14.3998C149.025 17.0941 148.294 19.0465 146 21.0419C146.307 20.0958 148.53 15.0751 148.978 14.2369C147.961 14.217 143.69 13.8161 142.935 13.4282C143.329 12.5529 147.37 12.4718 147.95 11.8169C148.065 10.9072 146.137 6.76965 145.482 6.30878C144.399 6.95772 142.517 13.5803 139.614 15.1151C140.198 16.0522 140.765 17.7799 141.461 18.1359C141.936 17.9365 141.979 17.4077 142.251 16.7763L142.618 16.6863C143.167 17.5884 144.676 23.7553 144.712 24.5475C144.989 30.6095 143.707 30.3637 150.4 29.6965C151.492 29.5877 153.791 29.863 155.006 29.3339C155.032 29.2504 155.057 29.1669 155.083 29.0835C153.313 27.7984 147.178 25.7365 146.335 23.9846L146.508 23.8247C149.145 24.0773 156.139 28.353 158.48 29.7723C153.236 30.9044 149.773 30.4007 145.038 31.1775C144.906 31.7694 145.123 35.2665 145.125 36.1429C146.903 35.3086 147.023 34.7245 149.285 34.1769L149.459 34.3139C148.739 35.3379 146.389 36.6414 145.233 37.3311C146.945 38.6778 148.818 40.6369 150.373 42.1993C151.072 40.8969 156.298 32.199 157.618 32.7956C156.663 35.3774 151.793 41.2122 150.998 43.383L151.14 43.6457C152.015 43.7407 152.983 42.9157 153.706 43.0484C153.403 43.7586 152.385 44.5499 151.775 45.0768C154.314 44.8677 155.34 44.3745 157.78 43.8564C158.297 43.7467 160.522 43.5968 161.231 43.5272C161.318 42.5995 161.66 40.7704 162.577 40.3643L162.81 40.6841C162.982 41.5578 162.728 42.582 162.574 43.4772L166.817 42.7903C169.389 39.594 172.453 35.7689 174.771 32.4324L174.737 32.315C174.32 30.8419 172.874 21.3265 172.576 20.8792C171.64 20.9903 171.559 22.1642 170.246 22.0504C169.828 21.7312 169.792 21.5313 169.613 21.0533C169.758 19.7899 170.999 20.7178 171.785 20.0504C171.693 19.3274 169.772 17.547 169.323 16.7519C168.945 16.0827 168.676 15.4798 168.367 14.7814C170.659 16.3141 171.711 17.6286 173.575 19.6353C174.107 17.1495 174.746 14.688 175.489 12.2573C174.719 12.1571 172.762 11.8991 172.473 11.0619C173.976 9.79361 176.726 11.8613 177.62 11.8109L177.81 11.4956C177.557 10.124 169.83 4.57512 168.784 4.50485L168.652 4.28715L168.204 4.32364C167.715 3.74389 164.801 3.61851 163.973 3.60767C163.109 3.30198 162.614 3.53576 161.701 3.10633ZM110.577 66.0141C108.937 68.1206 105.867 70.4454 104.059 72.7361C104.735 73.4983 105.469 75.0715 106.026 75.2811C106.897 74.6961 106.304 73.5929 107.389 73.4739L107.596 73.7384C107.515 74.6849 106.519 75.9367 105.907 76.6373L105.972 76.7076C107.662 78.5693 107.336 79.703 108.683 80.6511C108.35 81.6928 107.665 81.1019 108.201 82.4527C106.5 81.6663 107.122 79.8587 106.209 78.6031C105.262 78.1757 104.98 79.1157 104.595 78.4617L104.665 78.3312C105.58 76.597 104.314 74.8516 103.199 73.5328C102.696 74.2674 102.047 75.1622 101.635 75.9315C102.629 77.1454 103.746 79.8625 104.352 81.351C107.991 90.2802 110.727 103.352 107.599 112.71L107.138 112.81C106.134 112.374 102.111 112.801 100.833 112.879C87.8215 113.669 72.3016 112.025 71.027 95.8678C70.2895 87.77 72.5496 81.9123 76.2935 74.9461C79.5691 68.8511 82.9857 65.0586 87.5303 59.8762C85.1658 57.2566 83.7989 56.485 81.2029 54.3468C74.4141 48.7943 67.5962 42.8152 59.1637 39.9255C45.1487 35.1227 32.1548 31.7204 18.0762 38.2684C17.5979 39.0207 17.0195 40.2424 16.7904 41.1627C13.9906 52.7929 18.2413 67.8742 23.5944 78.2568C27.4662 85.7665 36.6009 96.2639 42.8333 102.029C52.7338 111.187 69.2133 119.843 82.7033 121.912C86.9189 122.599 91.1956 122.835 95.4611 122.618C96.3821 122.576 100.803 122.02 101.201 122.138C95.262 124.906 81.2829 123.19 74.9147 121.72C74.473 121.618 74.2526 121.601 73.9019 121.853L74.0743 122.146C79.0163 124.232 89.054 125.535 94.3639 125.321C102.795 125.038 111.353 122.434 117.001 115.783C128.868 101.806 123.142 81.0511 115.17 66.6352C114.757 65.8873 114.009 63.9618 113.19 64.006L112.866 64.4972C112.644 65.8538 113.613 66.5989 114.186 67.7425C120.694 80.7279 124.745 96.6988 116.994 110.092C114.651 114.14 111.777 117.637 107.288 119.434C107.536 118.92 110.744 116.76 111.461 116.066C114.449 113.167 117.011 108.482 118.224 104.573C122.575 90.5524 116.928 78.206 110.577 66.0141ZM179.353 48.8037L179.039 48.9784C177.662 48.328 176.432 47.4075 175.416 46.2717C175.149 47.1865 173.626 50.9415 173.671 51.348C174.038 51.6898 174.144 51.7619 174.576 52.0159L174.522 52.3073C173.391 52.9463 173.583 51.8298 172.067 53.1588C171.277 53.3046 171.299 52.7362 170.192 52.686C168.647 52.6159 163.518 53.3382 162.372 52.8592C161.75 53.0056 160.239 55.2798 159.682 55.982C164.21 56.2349 165.778 55.4774 169.848 55.1945C166.611 57.1379 158.74 58.2927 154.994 57.5231C152.772 57.1859 150.491 56.447 148.248 56.3536C147.3 56.3142 146.334 58.0483 144.932 57.972C143.838 57.9124 142.969 57.6678 142.124 56.9318C141.025 55.9739 141.863 54.6993 141.849 53.5015C141.371 52.4294 138.27 50.4204 137.124 49.544C135.241 50.4318 133.215 51.0851 131.345 52.0591C125.977 54.8547 119.928 58.6838 115.281 62.537C120.288 69.8402 124.399 83.276 124.963 92.1296C139.394 88.9133 155.182 81.4058 168.367 74.5893C170.175 73.6544 172.385 71.9393 174.179 70.8006C184.518 64.1823 194.737 57.1625 203.34 48.3305C207.215 44.3534 207.985 41.6736 207.873 36.3718C199.837 32.2798 194.372 34.8494 186.533 34.6667C185.53 37.4706 184.431 40.6946 182.993 43.2721C182.005 45.0401 180.401 46.9334 179.425 48.6722L179.353 48.8037ZM207.356 47.1858C207.011 47.1101 206.892 47.0771 206.543 47.0707L206.525 46.4845C206.093 46.654 205.932 46.8166 205.741 47.369C205.08 49.2674 199.813 53.289 199 54.6174C199.318 54.6529 199.595 54.4502 199.889 54.2906L199.844 54.4252L199.757 54.343C199.698 54.6921 199.394 54.924 199.148 55.1721C199.324 55.4378 199.3 55.4458 199.586 55.576C194.525 60.6442 186.847 65.8504 180.789 69.6024C178.573 70.9757 175.299 73.3821 173.279 74.5226C160.248 81.8786 146.848 88.5534 132.42 92.7009C130.25 93.3244 127.389 94.2345 125.235 94.6018C125.389 98.1703 124.463 103.967 123.535 107.397C129.953 105.642 136.476 103.952 142.766 101.805C145.182 100.981 147.831 99.7609 150.306 98.8091C164.226 93.4579 177.691 87.7082 189.869 78.9834C191.642 77.7143 193.998 75.7962 195.64 74.3685C196.736 73.417 197.976 72.042 199.143 71.001C202.191 68.2845 207.974 63.2873 210.046 59.9358C213.022 55.119 215.771 49.559 214.313 43.791C213.47 40.4572 212.097 38.6715 209.262 36.8804C210.008 41.1502 209.264 43.3436 207.356 47.1858ZM183.962 35.9951C184.674 33.6505 185.082 23.925 183.304 22.6703L182.999 22.6975C182.446 23.7226 182.424 28.9435 181.212 30.467L181.013 30.4668C180.372 29.1384 181.284 26.2653 180.184 25.7573C178.889 26.0232 178.18 27.2799 177.494 26.9498C177.655 26.1097 178.045 25.6494 178.527 24.9573C177.134 23.7485 175.346 21.7107 173.689 21.6311C174.788 24.9808 175.519 28.4398 175.873 31.9474C176.446 31.3181 177.962 29.4141 178.82 29.4397C178.981 30.2083 177.899 31.754 177.456 32.431C177.311 32.655 177.16 32.8752 177.003 33.091C178.32 33.0545 181.19 32.842 182.229 33.4722L182.159 33.7041C180.531 34.3397 178.209 34.0573 176.511 33.7784C176.614 34.9625 176.623 38.7909 177.203 39.4131C178.049 39.3598 180.139 37.3591 181.716 36.8759L183.962 35.9951ZM181.329 18.1621C179.442 20.0853 178.551 20.7469 175.877 21.2027C176.869 22.142 177.637 22.8641 178.712 23.7004C179.591 24.5302 180.117 24.8424 181.134 25.4866C181.302 23.8737 181.581 22.6652 182.009 21.1062C182.366 19.8049 182.787 18.8181 181.329 18.1621ZM131.325 29.2547C131.704 32.7502 132.107 35.5008 133.084 38.9132C133.838 36.7776 134.908 31.8776 136.01 30.4263L136.224 30.4121C136.557 31.7922 135.96 34.4844 135.683 35.8855C135.369 37.4712 134.303 39.0661 133.61 40.4863C134.473 41.025 135.393 41.6118 136.322 42.012C138.596 42.9919 143.44 44.396 144.708 46.6812L144.72 47.0991C143.907 47.7878 140.394 46.4447 138.766 46.842C138.87 47.582 143.913 51.0575 144.869 51.5294C145.617 51.979 147.072 52.9761 147.803 53.0778L148.009 52.8377C147.753 51.6446 145.857 49.9045 145.679 48.8958L145.896 48.6694C146.796 48.8743 147.291 49.6846 147.751 50.4141L147.804 50.4987C148.199 49.369 148.801 47.3782 149.488 46.4475C150.093 45.6278 151.473 45.2636 151.135 44.1649L151.008 44.1503C150.566 44.0956 150.46 44.0925 150.07 43.8905C149.171 42.5771 146.231 39.0249 144.657 38.5186C143.763 38.231 141.637 39.8709 140.519 40.2886C139.383 40.7135 139.124 40.8521 137.801 41.1213C139.471 39.5289 142.933 37.8305 143.951 36.2911C143.849 34.2696 138.714 31.1158 138.677 29.9418C139.88 29.4459 142.041 31.8476 142.979 32.6906C142.863 31.9063 141.902 24.833 141.748 24.6032L141.363 24.5667C138.466 26.3778 134.672 28.4835 131.325 29.2547ZM160.601 46.9107C157.872 46.9958 153.391 46.8059 150.954 47.0005C150.035 48.4134 149.291 49.5473 148.51 51.0519C152.003 54.6162 152.594 55.7417 158.161 55.9401C158.354 55.9469 158.553 55.9323 158.749 55.9168L158.804 55.7414C159.089 54.8615 160.089 53.396 160.022 53.0525C158.684 52.8056 154.15 54.2066 152.611 53.7649L152.471 53.4106C153.604 51.1973 159.418 52.5317 161.239 52.0795C161.591 51.3272 160.727 49.1309 161.114 47.0769L160.899 46.8756L160.601 46.9107ZM134.095 15.8666C133.644 16.7595 132.039 21.1189 132.176 21.9481C133.086 22.1541 135.321 22.0587 136.357 22.0443C138.14 22.1129 139.774 22.6943 141.254 22.6894L141.378 22.4477C141.162 21.978 141.203 22.0918 140.925 21.7599C139.713 20.311 139.5 17.4422 138.956 15.6448C138.944 15.6048 138.534 15.4368 138.38 15.4115C136.773 15.6693 135.721 15.7745 134.095 15.8666ZM174.912 19.5587L177.517 17.7136C178.363 16.8119 180.652 16.0598 180.757 15.2267C179.89 14.0706 177.835 13.4455 176.661 12.5818C175.729 14.2376 175.59 17.5367 174.912 19.5587ZM170.155 43.1892C170.956 43.1003 171.895 42.8976 172.6 43.2315L172.717 43.5427C171.855 44.5077 170.09 44.693 168.869 44.8482C168.472 46.0437 168.334 46.3382 167.675 47.4118C165.895 48.2064 162.995 50.4177 162.457 52.3371C165.982 51.772 168.363 51.3881 171.984 51.6377C172.71 49.6429 173.702 48.429 174.65 46.5512C174.694 46.4655 174.434 45.2921 174.385 45.0713L174.522 44.8551C175.216 45.1022 178.526 47.4883 179.25 48.1005C181.019 45.1134 182.813 41.0599 183.954 37.7606C182.289 39.3268 178.872 42.6356 176.441 42.806L176.014 42.621L175.922 42.2705C176.303 41.7534 176.511 41.5043 176.757 40.9061C176.587 39.9603 176.052 39.5708 175.846 38.867C175.633 38.1353 175.971 37.2264 175.53 36.3467L175.283 36.2356C174.849 36.7127 174.459 37.2916 174.106 37.8325C172.916 39.6621 171.29 41.3421 170.155 43.1892ZM163.658 45.986C162.646 46.7624 162.133 48.6161 162.881 49.6062L163.198 49.591C163.679 48.7267 164.559 47.4205 164.481 46.4814C164.113 46.0594 164.276 46.1998 163.658 45.986ZM140.54 24.1291C137.588 23.6072 134.77 23.5183 131.853 22.7445C131.577 24.2428 131.463 26.8459 131.348 28.4394C133.246 27.4772 134.905 26.5104 136.877 25.6781C137.941 25.2187 139.562 24.6084 140.54 24.1291ZM93.2965 54.3997C94.1601 53.6113 96.7953 51.3335 97.2784 50.5733C97.2168 50.2454 97.022 49.9216 96.7559 49.7133C94.3906 47.8612 92.354 45.6728 90.1602 43.6706C88.6654 42.3065 86.7755 41.1609 85.1685 39.9336C73.548 32.3004 61.3857 26.1881 47.3824 24.5925C45.1691 24.3403 42.0178 23.9967 39.8709 24.2935C33.3231 25.0725 24.906 27.4544 20.6127 32.8183C19.4369 34.2873 18.7907 35.6949 18.0218 37.3955C30.5351 30.4193 42.1865 32.9013 55.2904 36.4137C65.9203 39.2632 73.1792 44.0706 81.3839 51.2777C84.9264 54.1136 86.0581 55.1714 89.4383 58.314C89.9335 57.7144 91.8901 55.5919 92.0653 55.117C91.8982 54.4173 91.4066 52.8323 91.6585 52.2836C92.5768 52.4473 92.8951 53.5869 93.2965 54.3997ZM174.947 4.46221C174.959 4.94639 174.898 5.20528 175.36 5.56751C175.843 5.94456 178.016 7.8811 178.446 7.96041C179.378 5.21558 177.293 4.50647 174.947 4.46221ZM99.1439 93.8174C101.693 93.956 104.449 94.3551 106.844 94.4421C106.26 92.4037 105.712 90.3313 105.031 88.3234C104.513 86.7953 101.029 77.9401 100.248 77.4879C100.221 77.4724 100.193 77.4601 100.165 77.446C96.4341 82.5631 93.4434 86.948 91.5166 93.1289C94.1014 93.8402 96.4746 93.8243 99.1439 93.8174ZM91.6718 95.3892C90.803 103.472 101.097 105.481 107.117 107.17C107.224 107.2 107.426 107.143 107.534 107.105C108.264 103.165 107.57 100.794 107.091 96.906C101.226 96.5931 97.3481 97.0052 91.6718 95.3892Z" fill="#941914" fill-opacity="0.988235"/>
<path d="M183.398 44.5818C186.769 44.9222 185.353 49.0789 182.789 50.0286C181.985 49.9087 181.463 49.9166 180.921 49.3692C180.849 47.9853 182.179 47.2554 182.791 46.1447C182.889 45.9675 183.266 44.8981 183.398 44.5818Z" fill="#941914" fill-opacity="0.988235"/>
<path d="M182.645 69.9508C183.528 69.7813 189.111 70.7296 189.768 71.5195C188.258 71.6741 183.313 71.4461 182.645 69.9508Z" fill="#941914"/>
<path d="M165.104 80.6221C166.41 80.8972 172.17 81.7512 172.217 83.1259C170.537 82.6455 166.699 81.9827 165.182 81.1005C165.024 81.0087 165.087 80.7995 165.104 80.6221Z" fill="#941914"/>
<path d="M177.055 74.1096C178.451 74.0892 183.235 74.7723 184.005 75.8804C182.995 75.9144 178.227 75.2505 177.189 74.629C177.078 74.5632 177.08 74.2855 177.055 74.1096Z" fill="#941914"/>
<path d="M158.469 83.9064C160.469 83.5732 164.769 84.8055 166.325 86.0006C166.172 86.014 166.016 86.0203 165.863 86.0196C164.975 86.0133 159.114 84.5383 158.469 83.9064Z" fill="#941914"/>
<path d="M170.757 77.3863C171.107 77.3357 171.465 77.3348 171.816 77.3836C173.14 77.5608 177.541 78.5734 178.35 79.6607C177.248 79.6878 171.362 78.2435 170.757 77.3863Z" fill="#941914"/>
<path d="M152.653 86.7843C154.134 86.629 158.645 87.6055 159.508 88.8683C158.286 88.7679 153.278 87.5431 152.653 86.7843Z" fill="#941914"/>
<path d="M146.079 89.2758C147.499 89.0604 152.232 90.3753 153.142 91.611C151.856 91.5124 147.159 89.9995 146.079 89.2758Z" fill="#941914"/>
<path d="M140.055 91.856C141.382 91.7165 145.895 92.4513 146.473 93.7334C144.931 93.5403 142.715 92.8451 141.14 92.4892C140.42 92.3264 140.331 92.3412 140.055 91.856Z" fill="#941914"/>
<path d="M190.769 66.754C192.325 66.6868 194.422 66.8719 195.965 67.0138C194.764 67.3543 194.252 67.4179 193.017 67.553C192.151 67.5485 189.586 67.6002 188.957 67.084C189.561 66.7686 190.088 66.7924 190.769 66.754Z" fill="#941914"/>
<path d="M199.036 62.0205C199.484 61.9172 199.542 61.9398 200.01 61.9909L200.068 62.1157C199.6 62.8492 196.811 63.2304 195.849 63.3085C195.333 63.3049 195.006 63.3665 194.597 63.072C194.883 62.6725 198.196 62.2079 199.036 62.0205Z" fill="#941914"/>
<path d="M133.876 94.0087C135.048 93.9375 138.72 94.6363 139.634 95.3535C138.553 95.4731 134.466 94.7243 133.876 94.0087Z" fill="#941914" fill-opacity="0.980392"/>
<path d="M204.229 57.4658L204.539 57.5262L204.575 57.771C203.833 58.3908 201.84 58.8195 200.875 59.0251C200.527 58.9213 200.675 59.0101 200.418 58.7422C200.733 58.434 203.56 57.6788 204.229 57.4658Z" fill="#941914" fill-opacity="0.988235"/>
<path d="M86.3319 48.3406L86.8049 48.5203C87.7301 49.6412 88.1279 51.885 88.4685 53.3522C88.0889 53.4268 88.279 53.4395 87.8891 53.2494C87.303 52.1085 86.6067 49.604 86.3319 48.3406Z" fill="#941914"/>
<path d="M80.6768 44.9053L81.2473 45.1204C81.7041 45.8252 83.755 49.0539 83.8321 49.6273L83.4937 49.5832C82.0171 48.4736 81.2267 46.6059 80.6768 44.9053Z" fill="#941914" fill-opacity="0.972549"/>
<path d="M75.5734 42.0789C76.6783 42.7739 77.9302 44.3361 78.0957 45.6555C77.4718 45.1144 75.5537 42.8602 75.5734 42.0789Z" fill="#941914" fill-opacity="0.898039"/>
<path d="M108.683 80.6512C109.133 80.2017 109.208 79.962 109.735 79.8767C109.766 80.4227 109.364 81.0512 109.098 81.5603C109.75 83.5464 110.656 85.6202 111.248 87.509C112.429 91.2735 113.928 103.492 112.414 106.717L112.184 106.849L111.975 106.692C112.124 105.458 112.472 99.2587 112.058 98.3897C110.862 95.877 111.517 92.4397 110.707 90.3652C109.85 90.013 109.92 90.8143 109.375 90.2851C109.401 89.5973 110.145 89.216 110.134 88.8279C110.085 87.1965 109.222 85.6742 108.91 83.9668C107.891 84.368 106.956 84.7443 105.907 85.0697C106.669 84.2678 107.597 83.3621 108.201 82.4528C107.665 81.102 108.35 81.6929 108.683 80.6512Z" fill="#941914" fill-opacity="0.984314"/>
<path d="M171.984 51.6379C172.71 49.643 173.702 48.4291 174.65 46.5513C174.694 46.4657 174.433 45.2923 174.385 45.0715L174.522 44.8552C175.216 45.1024 178.526 47.4884 179.25 48.1007L179.353 48.8038L179.039 48.9785C177.662 48.3281 176.432 47.4076 175.416 46.2718C175.149 47.1867 173.626 50.9416 173.671 51.3481C174.038 51.6899 174.144 51.762 174.576 52.016L174.522 52.3074C173.391 52.9464 173.583 51.8299 172.067 53.1589C171.277 53.3047 171.299 52.7363 170.192 52.6861C168.647 52.616 163.518 53.3383 162.372 52.8594C162.297 52.6689 162.271 52.4202 162.236 52.2117L162.457 52.3372C165.982 51.7721 168.363 51.3882 171.984 51.6379Z" fill="#941914"/>
<path d="M199.586 55.5762C199.3 55.4459 199.324 55.438 199.148 55.1722C199.394 54.9242 199.698 54.6922 199.757 54.3431L199.844 54.4253L199.889 54.2908C199.595 54.4503 199.318 54.653 199 54.6176C199.813 53.2892 205.08 49.2676 205.741 47.3691C205.932 46.8167 206.093 46.6541 206.525 46.4846L206.543 47.0709C206.892 47.0772 207.011 47.1103 207.356 47.186C205.278 50.2269 202.243 52.9715 199.586 55.5762Z" fill="#941914" fill-opacity="0.941176"/>
<path d="M107.138 112.81L107.599 112.71C107.507 113.441 107.486 114.22 107.046 114.797L106.872 114.685C106.837 113.888 106.939 113.592 107.138 112.81Z" fill="#941914" fill-opacity="0.92549"/>
<path d="M3.81635 63.5044C4.41272 62.5361 6.34095 59.6323 7.39783 59.3577C6.34113 61.6534 4.31787 63.3964 4.84776 65.5839L5.64286 68.6798C6.42713 67.2417 6.95972 66.4666 8.14687 65.3129L8.30097 65.3893C7.72754 67.0467 6.97707 68.0451 5.99191 69.4761C6.20961 70.5953 6.74726 73.4413 7.23758 74.3237L7.51111 74.4166C8.17649 73.8135 8.95191 71.5969 10.0111 70.3426C9.57176 72.3537 9.0603 74.1996 7.71436 75.82C8.41027 77.5494 8.99111 78.9962 9.54123 80.7889C10.4301 79.3086 11.1407 77.6624 12.2602 76.4344C11.7938 78.2392 11.0971 79.6795 10.2438 81.3324C10.5555 82.3417 11.3726 84.944 12.3654 85.3061C13.3075 84.7979 13.0391 83.7896 13.6118 83.3141C14.6376 84.032 12.8275 86.1832 13.028 86.7315C13.4391 87.8563 14.2334 89.8962 15.5487 90.0825C16.1485 89.9069 16.2858 89.7531 16.7472 89.3618C16.7407 90.2922 16.5215 90.8405 16.2437 91.7153C18.2301 94.5331 20.9567 97.4474 23.1526 100.136C23.6603 100.757 23.9053 101.775 24.3165 102.19C26.7168 104.616 28.9046 106.956 31.4621 109.224C32.3401 110.002 34.2657 112.428 35.158 113.443C31.9158 112.974 30.7226 107.873 28.5802 108.108C28.326 108.686 28.2878 109.534 28.0766 109.668C27.7719 109.263 27.6286 108.314 27.4239 107.771C26.8684 106.299 25.405 104.33 24.1371 103.419C23.5039 103.88 23.7649 105.368 23.2267 105.843C22.2654 105.222 23.5564 103.374 22.8751 102.136C21.9807 100.51 20.8644 99.1513 19.769 97.6666C19.7247 98.4649 19.707 99.7001 19.4848 100.43L19.2216 100.591L19.4324 100.603L19.268 100.838C18.8413 99.8772 19.0933 98.1462 19.203 97.0904C18.1287 95.9546 17.2749 95.1884 16.6271 93.7552L16.3459 93.7133C16.1073 94.2793 15.8789 95.0334 15.3982 95.3544C14.3362 94.7147 15.7767 93.0905 15.2632 92.036C14.6002 90.6747 13.2324 89.7627 12.0149 88.9318C11.6729 88.7011 12.5773 88.239 12.1681 87.5198C11.6245 86.5646 10.4559 85.12 10.0108 84.1885C7.54327 79.0264 5.61088 74.6216 4.63566 68.9198C4.25771 66.7094 3.7168 65.968 3.81635 63.5044Z" fill="#941914"/>
<path d="M126.501 35.8848C126.736 35.9771 126.981 36.0969 127.06 36.3702C127.808 38.9748 128.382 41.0308 129.711 43.4208C127.689 41.6582 126.796 40.5815 126.523 37.9413C121.654 41.6521 116.738 45.2457 111.936 49.0825C109.349 51.15 105.517 53.4097 102.705 55.3248C100.929 56.414 99.5007 57.9263 97.5891 58.8582C99.4332 56.7739 101.207 54.6433 103.115 52.6097C105.031 50.5688 107.387 49.0843 109.419 47.3573C112.363 44.8556 114.429 43.197 117.704 41.053C119.519 39.8843 121.369 38.7693 123.251 37.7093C124.496 37.0163 125.354 36.7612 126.501 35.8848Z" fill="#941914" fill-opacity="0.980392"/>
<path d="M84.5481 71.1067L84.685 71.1596C85.2669 71.9885 82.4424 76.5595 82.0876 77.5208C79.9171 83.4003 77.6371 90.2291 78.9498 96.5133C79.1786 97.6087 80.1288 99.1703 81.1476 99.7251C83.6646 100.949 84.797 94.5959 85.6785 94.2445C85.894 95.4067 85.9385 96.4595 85.674 97.6202C85.5338 98.0697 85.1665 98.7944 85.0855 99.175C84.349 102.641 79.6931 103.291 77.8125 100.199C74.8764 95.3728 75.9978 88.1879 77.6115 83.0654C78.3977 80.5693 80.8613 75.1747 83.1169 73.7061C83.5492 72.5869 83.7714 72.0324 84.5481 71.1067Z" fill="#941914" fill-opacity="0.988235"/>
<path d="M217.497 24.5159C211.97 19.5189 205.336 17.8731 198.073 16.59C196.536 16.3183 190.337 16.5358 189.752 15.9266L189.929 15.7573C193.544 15.1324 200.997 15.6751 204.595 16.4953C207.631 17.1873 215.5 20.2647 217.594 22.461C217.153 23.685 217.392 23.4556 217.497 24.5159Z" fill="#941914"/>
<path d="M213.392 23.2903C214.732 23.3781 217.285 25.6548 218.095 26.7822C220.279 29.8191 220.196 31.633 217.273 33.7607C216.12 33.8389 214.653 33.9 213.542 33.5876C211.847 33.1236 211.101 32.7901 209.647 31.8856C211.69 31.8664 214.055 32.4892 215.983 31.4791C218.593 30.1116 214.321 24.893 213.459 23.4088L213.392 23.2903Z" fill="#941914" fill-opacity="0.984314"/>
<path d="M147.667 5.95812C150.357 4.05428 158.527 3.07743 161.701 3.10634C162.614 3.53577 163.109 3.30199 163.973 3.60768C162.54 4.33702 149.811 5.89687 147.667 5.95812Z" fill="#941914"/>
<path d="M131.625 10.5232C132.607 10.8002 133.285 11.0769 134.221 11.4581C131.647 12.614 129.899 13.9699 130.849 16.9595C130.722 17.1839 130.759 17.1089 130.523 17.2705C129.973 17.1171 129.427 16.424 129.017 15.9834C128.132 12.726 128.527 11.5125 131.625 10.5232Z" fill="#941914" fill-opacity="0.988235"/>
<path d="M153.663 16.1396C153.966 16.2421 154.241 16.2824 154.412 16.5599C156.298 19.618 157.367 24.6675 158.893 27.6156C158.458 27.6969 158.406 27.6947 157.993 27.5395C156.912 26.5555 153.837 17.7291 153.663 16.1396Z" fill="#941914"/>
<path d="M167.523 18.0129C167.736 18.1978 167.641 18.102 167.74 18.4333C166.73 20.8602 163.255 27.6152 161.261 28.8109C161.098 28.6006 161.12 28.5751 161.07 28.3083C162.913 25.0746 165.188 20.785 167.523 18.0129Z" fill="#941914"/>
<path d="M163.879 14.7239L164.118 14.9309C164.568 16.1399 163.058 21.7414 162.403 23.0534C161.792 24.277 162.155 24.3141 160.961 24.8239L160.742 24.3871C161.849 21.8001 162.555 17.7722 163.879 14.7239Z" fill="#941914"/>
<path d="M161.906 33.9153C163.087 34.1662 165.832 39.1874 165.689 40.2217C164.055 39.3477 162.193 35.7461 161.906 33.9153Z" fill="#941914"/>
<path d="M87.0501 62.6362L87.2044 62.9558C88.0889 62.7883 87.6438 62.335 88.4452 62.5534C87.4996 63.6302 85.6953 66.267 84.8575 67.0513C84.7304 66.7868 84.7634 66.8336 84.4156 66.6874L84.293 66.6372L84.1647 66.2536C84.7432 65.0992 86.0413 63.47 87.0501 62.6362Z" fill="#941914" fill-opacity="0.937255"/>
<path d="M106.236 58.2601C107.626 58.1226 112.375 58.0033 113.875 58.3721C113.982 58.3983 114.028 58.6942 114.074 58.8515C112.813 58.9921 107.241 59.1748 106.346 58.6861L106.236 58.2601Z" fill="#941914"/>
<path d="M201.058 18.9392C203.19 18.9661 204.196 22.3135 205.455 23.9405C203.584 23.7938 202.317 20.5193 201.058 18.9392Z" fill="#941914" fill-opacity="0.976471"/>
<path d="M7.18103 52.7388C7.3308 52.8952 7.31707 52.9825 7.37597 53.2134C7.02602 54.2869 4.5661 57.6396 3.56088 58.1529C3.34445 57.9477 3.35258 57.8601 3.29224 57.5704C4.03874 56.3797 6.20057 53.908 7.18103 52.7388Z" fill="#941914"/>
<path d="M170.575 25.18C171.205 25.0951 171.49 24.9859 171.967 25.382L171.821 25.6654C170.526 26.4587 170.042 26.5342 168.564 26.6862C168.036 26.7407 167.731 26.8255 167.267 26.5552L167.341 26.2903C168.571 25.509 169.18 25.4212 170.575 25.18Z" fill="#941914"/>
<path d="M101.178 67.6488C101.675 67.6138 102.647 67.5249 103.039 67.8468L102.858 68.0732C101.361 68.6194 100.474 68.6338 98.8756 68.759C98.2587 68.9596 97.7015 69.2262 97.0966 69.0436L97.1949 68.8174C98.8626 67.9168 99.3166 67.9328 101.178 67.6488Z" fill="#941914"/>
<path d="M112.717 53.921C113.842 53.6836 117.309 53.8465 118.531 53.9042C119.182 53.9349 119.24 54.1036 119.575 54.5103C118.628 54.7724 115.081 54.618 114.018 54.5585C113.191 54.5123 113.167 54.4397 112.717 53.921Z" fill="#941914"/>
<path d="M104.201 62.9598C105.684 62.923 106.597 62.8803 108.033 63.322L108.093 63.5233C107.341 63.7878 106.454 63.7027 105.646 63.6834C104.394 63.7081 102.936 63.7768 101.737 63.4846L101.671 63.3072C102.413 63.0021 103.384 63.0077 104.201 62.9598Z" fill="#941914"/>
<path d="M194.359 17.8435C196.167 17.9172 198.205 20.9488 198.921 22.5019L198.285 22.397C197.936 22.1538 194.688 18.3051 194.359 17.8435Z" fill="#941914" fill-opacity="0.972549"/>
<path d="M87.0501 62.6362C88.2802 61.5289 88.5763 59.9129 90.1667 59.4905C90.4419 59.6122 90.5286 59.7393 90.7317 59.9559C90.4065 60.3391 88.7113 62.3872 88.4452 62.5535C87.6437 62.335 88.0889 62.7883 87.2044 62.9558L87.0501 62.6362Z" fill="#941914" fill-opacity="0.92549"/>
<path d="M97.065 72.854C97.6276 72.756 98.0261 72.7058 98.4753 73.011C98.0444 73.7376 95.1507 74.7804 94.1923 75.1737C93.7039 75.3928 93.642 75.5318 93.2333 75.3972C93.49 74.7681 96.2188 73.4455 97.065 72.854Z" fill="#941914"/>
<path d="M118.732 50.3156C119.735 50.1958 124.369 50.1077 125.064 50.4728L125.173 50.8854C123.827 51.1015 120.446 50.9915 119.027 50.7142C118.877 50.6849 118.831 50.4986 118.732 50.3156Z" fill="#941914"/>
<path d="M7.45112 46.9194L7.80595 47.0777C7.74597 47.944 5.3453 50.7038 4.66077 51.4845C4.32365 51.3229 4.43277 51.4462 4.29492 51.1309C5.04088 49.6144 6.34528 48.196 7.45112 46.9194Z" fill="#941914"/>
<path d="M168.204 4.3236L168.652 4.28711L168.784 4.50481C168.6 5.66449 168.383 7.14215 167.454 7.92279L167.171 7.84764C166.838 6.67061 167.664 5.39404 168.204 4.3236Z" fill="#941914"/>
<path d="M93.9491 56.5533C94.4779 55.1644 94.9007 53.7574 96.5516 53.3086L97.1147 53.8845C96.3662 54.5396 94.7014 56.067 93.9491 56.5533Z" fill="#941914" fill-opacity="0.94902"/>
<path d="M8.91216 40.8108C9.13166 41.6997 6.50228 44.26 5.69706 44.6224C5.36211 43.6357 8.1503 41.4335 8.91216 40.8108Z" fill="#941914"/>
<path d="M207.072 21.1091C208.393 21.2327 210.478 23.3846 211.168 24.461C209.907 24.3186 207.856 22.1033 207.072 21.1091Z" fill="#941914" fill-opacity="0.937255"/>
<path d="M35.1579 113.443C36.2248 113.649 38.7597 115.737 38.9915 116.649C37.9217 116.493 35.789 114.337 35.1579 113.443Z" fill="#941914" fill-opacity="0.905882"/>
<path d="M188.233 18.2292C189.271 18.2379 192.216 19.8746 192.803 20.6693L192.737 20.6731C191.593 20.7542 189.064 19.0126 188.233 18.2292Z" fill="#941914" fill-opacity="0.968627"/>
<path d="M169.642 10.2302L169.928 10.5988C169.893 11.5989 169.698 12.5476 168.95 13.2522L168.685 12.6598C168.75 11.6266 169.104 11.1184 169.642 10.2302Z" fill="#941914"/>
<path d="M10.7958 35.2056L10.9715 35.4415C10.8216 36.091 9.17177 37.5544 8.60701 38.0832L8.38245 37.8104C8.62544 37.0406 10.1517 35.7665 10.7958 35.2056Z" fill="#941914"/>
<path d="M160.405 37.1878C160.667 37.1545 160.905 37.1979 161.167 37.2275L161.285 37.4819C161.001 37.9948 160.498 38.238 159.995 38.5549C159.761 38.6127 159.555 38.5404 159.314 38.4891L159.231 38.2497C159.543 37.6002 159.769 37.526 160.405 37.1878Z" fill="#941914"/>
<path d="M92.4946 133.917C93.6109 133.938 95.2239 134.489 96.1483 135.13C95.0837 135.263 93.249 134.691 92.4946 133.917Z" fill="#941914" fill-opacity="0.952941"/>
<path d="M115.381 121.124C115.639 121.124 115.538 121.115 115.789 121.255C115.607 121.709 114.341 122.228 113.732 122.576C113.345 122.335 113.443 122.472 113.3 122.082C113.635 121.676 114.754 121.388 115.381 121.124Z" fill="#941914" fill-opacity="0.972549"/>
<path d="M126.01 47.4138C126.732 47.3428 128.046 47.2915 128.732 47.4605L128.946 47.8897C127.95 47.8801 126.494 48.2749 126.01 47.4138Z" fill="#941914" fill-opacity="0.956863"/>
<path d="M93.5529 78.1609C93.7334 78.2373 93.7179 78.2653 93.868 78.4218C93.5497 78.9226 92.2738 79.7881 91.7325 80.1917L91.5916 80.1639L91.4903 79.9193C91.9323 79.3048 92.9195 78.6378 93.5529 78.1609Z" fill="#941914" fill-opacity="0.768627"/>
</g>
<defs>
<clipPath id="clip0_5_172">
<rect width="225" height="140" fill="white"/>
</clipPath>
</defs>
</svg>
